<?xml version="1.0" standalone="no"?>
<!DOCTYPE svg PUBLIC "-//W3C//DTD SVG 20010904//EN"
 "http://www.w3.org/TR/2001/REC-SVG-20010904/DTD/svg10.dtd">
<svg version="1.0" xmlns="http://www.w3.org/2000/svg"
 width="500.000000pt" height="500.000000pt" viewBox="0 0 500.000000 500.000000"
 preserveAspectRatio="xMidYMid meet">

<g transform="translate(0.000000,500.000000) scale(0.100000,-0.100000)"
fill="#000000" stroke="none">
<path d="M2750 4250 c-164 -12 -297 -55 -402 -132 -26 -19 -129 -113 -227
-210 -204 -199 -273 -256 -365 -299 -88 -41 -234 -69 -361 -69 -137 0 -149 17
-43 59 60 24 118 78 118 109 0 26 -47 67 -105 94 -48 22 -60 23 -315 23 -233
0 -272 -2 -322 -19 -69 -22 -138 -78 -138 -111 0 -29 49 -72 129 -115 67 -36
76 -50 34 -51 -27 0 -69 -4 -161 -14 -65 -7 -146 -50 -194 -104 -102 -114
-181 -351 -208 -621 -25 -245 -37 -1166 -20 -1430 18 -273 47 -379 126 -455
42 -39 168 -110 215 -121 13 -3 341 -7 729 -9 388 -2 665 0 615 5 -49 4 -308
10 -575 14 -585 8 -780 19 -859 48 -80 30 -161 114 -185 191 -33 107 -37 178
-43 807 -5 639 0 806 33 1045 47 333 158 547 305 589 74 21 272 34 599 41 609
12 689 43 1013 388 176 188 287 263 456 309 66 19 104 21 291 21 162 0 240 -4
315 -18 231 -40 301 -81 433 -247 126 -159 173 -200 297 -259 57 -27 109 -49
116 -49 20 0 129 -52 129 -62 0 -5 -14 -17 -32 -26 -65 -35 -108 -82 -124
-138 -25 -87 -4 -157 66 -216 90 -78 204 -76 295 4 60 53 80 116 60 186 -8 27
-31 70 -50 95 -19 25 -35 49 -35 53 0 15 120 -9 177 -37 162 -78 232 -270 285
-784 23 -218 7 -1345 -23 -1680 -12 -133 -20 -147 -116 -196 -126 -63 -275
-78 -778 -79 -639 0 -1006 36 -1264 124 -83 28 -117 50 -55 35 132 -32 194
-40 319 -45 166 -7 292 9 433 55 578 190 935 763 851 1367 -22 159 -92 345
-184 491 -153 239 -408 433 -684 518 -98 30 -108 32 -236 50 -136 19 -225 19
-341 0 -128 -21 -212 -48 -349 -115 -139 -68 -227 -131 -345 -250 -169 -169
-290 -392 -345 -635 -16 -70 -23 -256 -14 -363 40 -461 302 -824 754 -1046
182 -89 280 -118 547 -160 281 -44 399 -51 898 -51 468 0 489 1 588 23 169 37
284 90 313 144 26 48 57 568 66 1093 14 816 -60 1318 -215 1457 -62 56 -104
73 -282 118 -172 43 -346 103 -445 153 -84 42 -143 94 -240 211 -169 207 -233
245 -465 280 -118 18 -334 26 -460 16z m-1460 -461 c76 -13 150 -52 150 -78 0
-53 -164 -131 -316 -152 -243 -32 -514 47 -502 147 4 35 67 69 166 90 78 16
393 12 502 -7z m3037 -261 c129 -119 137 -225 22 -308 -77 -55 -125 -58 -216
-11 -125 63 -127 248 -5 324 50 32 60 35 110 36 37 1 49 -5 89 -41z m-1157
-525 c321 -80 567 -327 657 -663 25 -93 25 -319 -1 -414 -73 -274 -252 -491
-500 -607 -111 -52 -215 -73 -366 -73 -150 -1 -226 13 -347 63 -363 149 -589
531 -545 920 15 124 42 214 100 324 56 107 142 210 236 284 122 95 308 172
451 187 71 7 248 -5 315 -21z"/>
</g>
</svg>
