<svg id="visual" viewBox="0 0 900 600" width="900" height="600" xmlns="http://www.w3.org/2000/svg" xmlns:xlink="http://www.w3.org/1999/xlink" version="1.1"><path d="M0 145L13.7 150C27.3 155 54.7 165 82 167C109.3 169 136.7 163 163.8 157C191 151 218 145 245.2 140C272.3 135 299.7 131 327 135C354.3 139 381.7 151 409 163C436.3 175 463.7 187 491 190C518.3 193 545.7 187 573 185C600.3 183 627.7 185 654.8 180C682 175 709 163 736.2 171C763.3 179 790.7 207 818 210C845.3 213 872.7 191 886.3 180L900 169L900 0L886.3 0C872.7 0 845.3 0 818 0C790.7 0 763.3 0 736.2 0C709 0 682 0 654.8 0C627.7 0 600.3 0 573 0C545.7 0 518.3 0 491 0C463.7 0 436.3 0 409 0C381.7 0 354.3 0 327 0C299.7 0 272.3 0 245.2 0C218 0 191 0 163.8 0C136.7 0 109.3 0 82 0C54.7 0 27.3 0 13.7 0L0 0Z" fill="#dadada"></path><path d="M0 211L13.7 220C27.3 229 54.7 247 82 251C109.3 255 136.7 245 163.8 240C191 235 218 235 245.2 235C272.3 235 299.7 235 327 236C354.3 237 381.7 239 409 243C436.3 247 463.7 253 491 259C518.3 265 545.7 271 573 270C600.3 269 627.7 261 654.8 250C682 239 709 225 736.2 235C763.3 245 790.7 279 818 290C845.3 301 872.7 289 886.3 283L900 277L900 167L886.3 178C872.7 189 845.3 211 818 208C790.7 205 763.3 177 736.2 169C709 161 682 173 654.8 178C627.7 183 600.3 181 573 183C545.7 185 518.3 191 491 188C463.7 185 436.3 173 409 161C381.7 149 354.3 137 327 133C299.7 129 272.3 133 245.2 138C218 143 191 149 163.8 155C136.7 161 109.3 167 82 165C54.7 163 27.3 153 13.7 148L0 143Z" fill="#e3e3e3"></path><path d="M0 313L13.7 328C27.3 343 54.7 373 82 383C109.3 393 136.7 383 163.8 374C191 365 218 357 245.2 351C272.3 345 299.7 341 327 341C354.3 341 381.7 345 409 344C436.3 343 463.7 337 491 341C518.3 345 545.7 359 573 360C600.3 361 627.7 349 654.8 333C682 317 709 297 736.2 305C763.3 313 790.7 349 818 370C845.3 391 872.7 397 886.3 400L900 403L900 275L886.3 281C872.7 287 845.3 299 818 288C790.7 277 763.3 243 736.2 233C709 223 682 237 654.8 248C627.7 259 600.3 267 573 268C545.7 269 518.3 263 491 257C463.7 251 436.3 245 409 241C381.7 237 354.3 235 327 234C299.7 233 272.3 233 245.2 233C218 233 191 233 163.8 238C136.7 243 109.3 253 82 249C54.7 245 27.3 227 13.7 218L0 209Z" fill="#ececec"></path><path d="M0 511L13.7 511C27.3 511 54.7 511 82 510C109.3 509 136.7 507 163.8 511C191 515 218 525 245.2 531C272.3 537 299.7 539 327 536C354.3 533 381.7 525 409 528C436.3 531 463.7 545 491 549C518.3 553 545.7 547 573 545C600.3 543 627.7 545 654.8 542C682 539 709 531 736.2 526C763.3 521 790.7 519 818 516C845.3 513 872.7 509 886.3 507L900 505L900 401L886.3 398C872.7 395 845.3 389 818 368C790.7 347 763.3 311 736.2 303C709 295 682 315 654.8 331C627.7 347 600.3 359 573 358C545.7 357 518.3 343 491 339C463.7 335 436.3 341 409 342C381.7 343 354.3 339 327 339C299.7 339 272.3 343 245.2 349C218 355 191 363 163.8 372C136.7 381 109.3 391 82 381C54.7 371 27.3 341 13.7 326L0 311Z" fill="#f5f5f5"></path><path d="M0 601L13.7 601C27.3 601 54.7 601 82 601C109.3 601 136.7 601 163.8 601C191 601 218 601 245.2 601C272.3 601 299.7 601 327 601C354.3 601 381.7 601 409 601C436.3 601 463.7 601 491 601C518.3 601 545.7 601 573 601C600.3 601 627.7 601 654.8 601C682 601 709 601 736.2 601C763.3 601 790.7 601 818 601C845.3 601 872.7 601 886.3 601L900 601L900 503L886.3 505C872.7 507 845.3 511 818 514C790.7 517 763.3 519 736.2 524C709 529 682 537 654.8 540C627.7 543 600.3 541 573 543C545.7 545 518.3 551 491 547C463.7 543 436.3 529 409 526C381.7 523 354.3 531 327 534C299.7 537 272.3 535 245.2 529C218 523 191 513 163.8 509C136.7 505 109.3 507 82 508C54.7 509 27.3 509 13.7 509L0 509Z" fill="#ffffff"></path></svg>