<svg id="visual" viewBox="0 0 900 600" width="900" height="600" xmlns="http://www.w3.org/2000/svg" xmlns:xlink="http://www.w3.org/1999/xlink" version="1.1"><path d="M0 139L13.7 149C27.3 159 54.7 179 82 184C109.3 189 136.7 179 163.8 184C191 189 218 209 245.2 226C272.3 243 299.7 257 327 237C354.3 217 381.7 163 409 138C436.3 113 463.7 117 491 125C518.3 133 545.7 145 573 154C600.3 163 627.7 169 654.8 168C682 167 709 159 736.2 145C763.3 131 790.7 111 818 99C845.3 87 872.7 83 886.3 81L900 79L900 0L886.3 0C872.7 0 845.3 0 818 0C790.7 0 763.3 0 736.2 0C709 0 682 0 654.8 0C627.7 0 600.3 0 573 0C545.7 0 518.3 0 491 0C463.7 0 436.3 0 409 0C381.7 0 354.3 0 327 0C299.7 0 272.3 0 245.2 0C218 0 191 0 163.8 0C136.7 0 109.3 0 82 0C54.7 0 27.3 0 13.7 0L0 0Z" fill="#c0c8d2"></path><path d="M0 283L13.7 280C27.3 277 54.7 271 82 267C109.3 263 136.7 261 163.8 277C191 293 218 327 245.2 350C272.3 373 299.7 385 327 368C354.3 351 381.7 305 409 276C436.3 247 463.7 235 491 232C518.3 229 545.7 235 573 247C600.3 259 627.7 277 654.8 287C682 297 709 299 736.2 277C763.3 255 790.7 209 818 194C845.3 179 872.7 195 886.3 203L900 211L900 77L886.3 79C872.7 81 845.3 85 818 97C790.7 109 763.3 129 736.2 143C709 157 682 165 654.8 166C627.7 167 600.3 161 573 152C545.7 143 518.3 131 491 123C463.7 115 436.3 111 409 136C381.7 161 354.3 215 327 235C299.7 255 272.3 241 245.2 224C218 207 191 187 163.8 182C136.7 177 109.3 187 82 182C54.7 177 27.3 157 13.7 147L0 137Z" fill="#b2bbc8"></path><path d="M0 421L13.7 427C27.3 433 54.7 445 82 444C109.3 443 136.7 429 163.8 438C191 447 218 479 245.2 494C272.3 509 299.7 507 327 493C354.3 479 381.7 453 409 446C436.3 439 463.7 451 491 460C518.3 469 545.7 475 573 472C600.3 469 627.7 457 654.8 449C682 441 709 437 736.2 429C763.3 421 790.7 409 818 411C845.3 413 872.7 429 886.3 437L900 445L900 209L886.3 201C872.7 193 845.3 177 818 192C790.7 207 763.3 253 736.2 275C709 297 682 295 654.8 285C627.7 275 600.3 257 573 245C545.7 233 518.3 227 491 230C463.7 233 436.3 245 409 274C381.7 303 354.3 349 327 366C299.7 383 272.3 371 245.2 348C218 325 191 291 163.8 275C136.7 259 109.3 261 82 265C54.7 269 27.3 275 13.7 278L0 281Z" fill="#a5afbe"></path><path d="M0 511L13.7 517C27.3 523 54.7 535 82 534C109.3 533 136.7 519 163.8 520C191 521 218 537 245.2 546C272.3 555 299.7 557 327 552C354.3 547 381.7 535 409 526C436.3 517 463.7 511 491 515C518.3 519 545.7 533 573 536C600.3 539 627.7 531 654.8 518C682 505 709 487 736.2 480C763.3 473 790.7 477 818 486C845.3 495 872.7 509 886.3 516L900 523L900 443L886.3 435C872.7 427 845.3 411 818 409C790.7 407 763.3 419 736.2 427C709 435 682 439 654.8 447C627.7 455 600.3 467 573 470C545.7 473 518.3 467 491 458C463.7 449 436.3 437 409 444C381.7 451 354.3 477 327 491C299.7 505 272.3 507 245.2 492C218 477 191 445 163.8 436C136.7 427 109.3 441 82 442C54.7 443 27.3 431 13.7 425L0 419Z" fill="#8e97a5"></path><path d="M0 601L13.7 601C27.3 601 54.7 601 82 601C109.3 601 136.7 601 163.8 601C191 601 218 601 245.2 601C272.3 601 299.7 601 327 601C354.3 601 381.7 601 409 601C436.3 601 463.7 601 491 601C518.3 601 545.7 601 573 601C600.3 601 627.7 601 654.8 601C682 601 709 601 736.2 601C763.3 601 790.7 601 818 601C845.3 601 872.7 601 886.3 601L900 601L900 521L886.3 514C872.7 507 845.3 493 818 484C790.7 475 763.3 471 736.2 478C709 485 682 503 654.8 516C627.7 529 600.3 537 573 534C545.7 531 518.3 517 491 513C463.7 509 436.3 515 409 524C381.7 533 354.3 545 327 550C299.7 555 272.3 553 245.2 544C218 535 191 519 163.8 518C136.7 517 109.3 531 82 532C54.7 533 27.3 521 13.7 515L0 509Z" fill="#77808d"></path></svg>