<?xml version="1.0" standalone="no"?>
<!DOCTYPE svg PUBLIC "-//W3C//DTD SVG 20010904//EN"
 "http://www.w3.org/TR/2001/REC-SVG-20010904/DTD/svg10.dtd">
<svg version="1.0" xmlns="http://www.w3.org/2000/svg"
 width="1077.000000pt" height="764.000000pt" viewBox="0 0 1077.000000 764.000000"
 preserveAspectRatio="xMidYMid meet">

<g transform="translate(0.000000,764.000000) scale(0.100000,-0.100000)"
fill="#000000" stroke="none">
<path d="M5978 7615 c-4 -4 -64 -11 -135 -17 -70 -5 -132 -13 -138 -18 -6 -5
-35 -12 -65 -16 -30 -4 -59 -10 -65 -14 -5 -4 -28 -10 -50 -14 -35 -6 -85 -21
-150 -46 -52 -19 -194 -88 -230 -111 -22 -14 -54 -34 -71 -45 -58 -36 -110
-81 -268 -232 -36 -34 -66 -67 -66 -72 0 -5 -8 -11 -18 -14 -11 -4 -25 -18
-32 -31 -7 -14 -17 -25 -21 -25 -11 0 -179 -168 -179 -179 0 -5 -4 -11 -9 -13
-13 -4 -141 -127 -141 -134 0 -10 -101 -103 -180 -165 -41 -33 -100 -79 -130
-103 -30 -25 -75 -55 -100 -67 -25 -12 -47 -26 -50 -30 -8 -11 -158 -79 -176
-79 -7 0 -14 -4 -14 -9 0 -5 -21 -11 -47 -15 -27 -4 -57 -13 -67 -21 -11 -8
-32 -15 -47 -15 -15 0 -30 -4 -33 -9 -3 -5 -55 -12 -116 -16 -60 -4 -110 -11
-110 -15 0 -11 -134 -22 -280 -22 -205 0 -193 -1 -208 30 -11 24 -10 29 8 44
11 9 44 24 73 33 143 47 260 135 293 220 15 40 15 49 3 73 -15 29 -61 77 -99
102 -12 8 -32 22 -44 31 -96 72 -222 86 -781 87 -396 1 -598 -14 -675 -49 -85
-38 -121 -59 -170 -95 -82 -62 -102 -89 -102 -139 -1 -63 48 -126 146 -184 23
-14 47 -31 54 -38 7 -7 22 -13 32 -13 10 0 20 -3 22 -7 2 -5 21 -17 42 -28 22
-11 54 -31 71 -45 l32 -26 -25 -12 c-17 -8 -79 -12 -174 -12 -82 0 -156 -4
-166 -10 -9 -5 -43 -12 -74 -15 -32 -4 -60 -11 -63 -16 -4 -5 -14 -9 -23 -9
-44 0 -201 -98 -260 -162 -56 -61 -92 -105 -104 -128 -7 -14 -15 -27 -18 -30
-3 -3 -14 -22 -25 -42 -11 -21 -23 -38 -27 -38 -5 0 -8 -7 -8 -15 0 -8 -4 -15
-10 -15 -5 0 -10 -9 -10 -19 0 -11 -5 -23 -10 -26 -6 -3 -10 -15 -10 -26 0
-10 -4 -19 -10 -19 -5 0 -10 -9 -10 -20 0 -11 -4 -20 -10 -20 -5 0 -10 -13
-10 -30 0 -16 -4 -30 -10 -30 -5 0 -10 -11 -10 -24 0 -14 -4 -28 -10 -31 -5
-3 -10 -15 -10 -27 0 -11 -9 -48 -19 -82 -11 -33 -31 -98 -45 -143 -14 -45
-26 -96 -26 -112 0 -16 -4 -33 -10 -36 -5 -3 -10 -19 -10 -35 0 -16 -4 -32
-10 -35 -5 -3 -10 -39 -10 -80 0 -41 -4 -77 -10 -80 -5 -3 -10 -30 -10 -59 0
-28 -4 -56 -9 -62 -6 -5 -12 -61 -15 -124 -4 -63 -11 -189 -16 -280 -19 -307
-33 -1151 -33 -1950 0 -767 6 -983 33 -1155 6 -38 13 -97 16 -130 3 -33 10
-64 15 -69 5 -6 9 -27 9 -47 0 -21 5 -41 10 -44 6 -3 10 -22 10 -41 0 -19 5
-34 10 -34 6 0 10 -11 10 -25 0 -14 5 -25 10 -25 6 0 10 -11 10 -25 0 -14 4
-25 9 -25 5 0 12 -11 15 -25 4 -14 11 -25 16 -25 6 0 10 -7 10 -15 0 -8 5 -15
10 -15 6 0 10 -5 10 -10 0 -6 12 -24 27 -42 100 -114 143 -144 368 -254 l119
-59 526 -6 c1228 -16 2199 -21 2394 -14 198 7 207 8 170 22 -45 16 -468 26
-1789 42 -451 6 -833 13 -850 16 -16 3 -111 12 -210 20 -239 19 -349 33 -353
45 -2 5 -10 10 -17 10 -24 0 -109 32 -131 49 -12 9 -32 23 -44 31 -13 8 -44
34 -69 57 -25 23 -49 43 -53 43 -5 0 -8 5 -8 11 0 7 -14 25 -30 41 -17 15 -30
33 -30 38 0 6 -3 10 -7 10 -14 0 -73 135 -93 214 -51 202 -65 450 -82 1444
-26 1613 31 2473 197 3002 71 226 206 471 316 577 167 159 319 184 1234 203
851 18 1111 34 1335 82 398 85 607 232 1140 798 183 196 294 299 410 381 337
240 723 328 1315 299 480 -24 788 -80 1001 -181 33 -16 64 -29 68 -29 7 0 62
-37 114 -75 39 -29 143 -136 169 -175 17 -25 46 -61 65 -82 18 -20 47 -53 65
-75 17 -21 41 -48 52 -60 12 -12 21 -27 21 -33 0 -5 5 -10 10 -10 6 0 10 -5
10 -10 0 -12 33 -50 121 -139 99 -100 152 -144 203 -169 25 -13 48 -27 51 -32
3 -5 19 -11 35 -15 17 -4 30 -11 30 -16 0 -5 6 -9 14 -9 8 0 41 -13 73 -29 32
-16 83 -39 113 -51 30 -13 69 -29 87 -36 17 -8 36 -14 43 -14 20 0 114 -33
135 -47 11 -7 27 -13 37 -13 10 0 18 -4 18 -10 0 -5 6 -10 13 -10 21 0 57 -35
57 -54 0 -22 -19 -41 -50 -51 -44 -13 -100 -39 -100 -46 0 -4 -9 -11 -20 -14
-11 -3 -20 -11 -20 -16 0 -5 -17 -27 -37 -49 -21 -22 -51 -66 -66 -97 -16 -32
-33 -66 -38 -75 -5 -10 -9 -69 -9 -132 0 -111 1 -116 36 -184 20 -39 45 -80
55 -91 11 -11 19 -25 19 -31 0 -5 4 -10 8 -10 8 0 18 -8 68 -48 12 -11 77 -45
114 -61 75 -32 221 -31 319 2 108 38 228 142 277 244 24 48 30 74 33 147 3 84
-9 156 -31 180 -4 6 -8 16 -8 24 0 16 -81 142 -91 142 -9 0 -71 91 -66 96 7 7
231 -34 283 -52 124 -41 195 -85 285 -175 49 -48 89 -95 89 -103 0 -9 5 -16
10 -16 6 0 10 -7 10 -15 0 -8 3 -15 8 -15 4 0 13 -15 21 -32 8 -18 25 -55 38
-82 12 -28 23 -58 23 -68 0 -10 5 -18 10 -18 6 0 10 -9 10 -19 0 -11 5 -23 10
-26 6 -3 10 -17 10 -30 0 -13 5 -27 10 -30 6 -3 10 -21 10 -40 0 -19 5 -37 10
-40 6 -3 10 -24 10 -46 0 -21 5 -39 10 -39 6 0 10 -18 10 -39 0 -22 5 -43 10
-46 6 -3 10 -28 10 -56 0 -27 5 -49 10 -49 6 0 10 -20 10 -44 0 -25 5 -57 11
-73 13 -31 25 -116 39 -273 5 -58 14 -145 20 -195 6 -49 15 -155 21 -235 5
-80 14 -208 20 -285 14 -181 13 -1117 0 -1580 -12 -395 -17 -526 -56 -1535 -4
-96 -4 -172 -1 -169 16 15 55 613 76 1144 5 127 14 358 20 515 24 592 15 1460
-20 1960 -22 310 -58 622 -89 770 -48 228 -66 302 -82 345 -10 28 -19 57 -19
66 0 31 -84 229 -131 308 -14 25 -44 63 -66 87 -7 7 -13 16 -14 21 -1 11 -103
91 -134 105 -14 6 -25 15 -25 20 0 4 -6 8 -14 8 -7 0 -19 6 -25 14 -7 8 -30
17 -52 21 -21 4 -39 10 -39 15 0 5 -18 11 -40 15 -22 4 -40 10 -40 15 0 4 -22
11 -50 15 -27 4 -52 11 -55 15 -3 5 -36 12 -73 15 -37 4 -71 11 -77 15 -5 4
-32 11 -60 14 -27 4 -63 11 -80 16 -16 5 -64 19 -105 30 -41 12 -83 25 -92 31
-10 5 -24 9 -32 9 -12 0 -211 62 -246 77 -8 3 -17 7 -20 8 -14 5 -48 19 -75
30 -16 7 -70 29 -119 50 -110 45 -197 89 -256 129 -24 17 -49 34 -55 38 -44
31 -225 202 -225 213 0 2 -17 20 -37 42 -63 66 -93 102 -93 113 0 5 -4 10 -10
10 -5 0 -10 4 -10 10 0 12 -20 37 -92 112 -32 33 -58 63 -58 68 0 5 -9 12 -20
15 -11 3 -20 11 -20 16 0 10 -90 98 -101 99 -3 0 -15 8 -27 18 -11 9 -30 24
-42 32 -12 8 -29 21 -36 28 -8 7 -53 31 -101 53 -125 57 -124 57 -168 64 -22
4 -44 10 -50 15 -5 4 -32 11 -60 15 -27 4 -54 10 -60 13 -19 13 -169 33 -360
48 -204 17 -676 30 -687 19z m-3532 -986 c240 -16 524 -60 524 -80 0 -5 5 -9
10 -9 12 0 61 -33 98 -64 48 -42 17 -103 -81 -162 -34 -21 -63 -42 -65 -46 -2
-4 -11 -8 -21 -8 -9 0 -26 -7 -37 -15 -10 -8 -26 -15 -34 -15 -8 0 -28 -7 -43
-15 -15 -8 -43 -17 -62 -21 -19 -3 -35 -10 -35 -14 0 -4 -22 -10 -50 -14 -27
-4 -52 -10 -54 -15 -3 -5 -32 -12 -63 -16 -32 -4 -64 -12 -72 -18 -20 -17
-522 -17 -542 -1 -8 7 -51 15 -96 19 -46 4 -83 11 -83 15 0 4 -22 10 -50 14
-27 4 -52 11 -55 16 -3 6 -13 10 -21 10 -16 0 -159 67 -182 85 -7 5 -31 27
-53 49 -33 33 -39 45 -39 81 0 53 26 87 89 119 72 37 247 88 346 102 115 15
465 17 671 3z m6745 -509 c53 -28 72 -43 154 -126 81 -82 105 -110 105 -124 0
-6 3 -10 8 -10 11 0 42 -59 42 -80 0 -10 5 -22 10 -25 6 -3 10 -41 10 -84 0
-95 -26 -155 -103 -235 -55 -57 -179 -126 -227 -126 -14 0 -31 -5 -37 -11 -23
-23 -160 6 -256 54 -132 66 -205 162 -227 299 -20 124 13 231 101 324 61 63
93 85 198 130 92 41 161 45 222 14z"/>
<path d="M6015 5739 c-133 -15 -260 -34 -270 -40 -5 -4 -30 -10 -55 -13 -25
-4 -54 -11 -65 -16 -11 -5 -54 -18 -95 -30 -41 -12 -84 -25 -95 -30 -11 -5
-41 -18 -67 -29 -26 -12 -53 -21 -61 -21 -7 0 -16 -3 -20 -6 -3 -3 -49 -26
-103 -50 -54 -24 -100 -47 -103 -51 -3 -5 -26 -19 -51 -31 -81 -42 -155 -84
-160 -91 -3 -4 -23 -18 -45 -31 -22 -13 -45 -29 -51 -35 -6 -5 -22 -17 -34
-25 -13 -8 -39 -30 -58 -48 -19 -18 -51 -45 -71 -60 -20 -15 -50 -40 -68 -57
-98 -92 -192 -188 -223 -226 -19 -24 -45 -53 -57 -66 -13 -12 -23 -25 -23 -28
0 -4 -6 -12 -12 -19 -7 -7 -26 -30 -43 -51 -16 -21 -36 -44 -42 -51 -7 -7 -13
-17 -13 -23 0 -6 -4 -11 -10 -11 -5 0 -10 -6 -10 -14 0 -8 -4 -16 -8 -18 -10
-4 -72 -94 -72 -104 0 -4 -11 -22 -25 -40 -14 -18 -25 -37 -25 -43 0 -6 -3
-11 -7 -11 -9 0 -33 -49 -33 -67 0 -7 -4 -13 -10 -13 -5 0 -10 -9 -10 -20 0
-11 -4 -20 -10 -20 -5 0 -10 -9 -10 -20 0 -11 -4 -20 -10 -20 -5 0 -10 -6 -10
-14 0 -8 -10 -34 -21 -58 -12 -23 -26 -54 -32 -68 -5 -14 -13 -33 -18 -42 -5
-10 -9 -24 -9 -32 0 -7 -7 -19 -15 -26 -8 -7 -15 -23 -15 -36 0 -12 -4 -26
-10 -29 -5 -3 -10 -17 -10 -30 0 -13 -4 -27 -10 -30 -5 -3 -10 -19 -10 -35 0
-16 -4 -32 -10 -35 -5 -3 -10 -19 -10 -35 0 -16 -4 -32 -10 -35 -5 -3 -10 -24
-10 -45 0 -21 -4 -42 -10 -45 -5 -3 -10 -28 -10 -54 0 -26 -4 -51 -9 -56 -5
-6 -12 -41 -15 -80 -3 -38 -10 -122 -17 -185 -16 -152 -16 -221 0 -365 7 -66
15 -158 18 -205 2 -47 9 -89 14 -94 5 -6 9 -34 9 -63 0 -29 5 -53 10 -53 6 0
10 -22 10 -50 0 -27 5 -50 10 -50 6 0 10 -18 10 -40 0 -22 5 -40 10 -40 6 0
10 -16 10 -35 0 -19 5 -35 10 -35 6 0 10 -13 10 -30 0 -16 5 -30 10 -30 6 0
10 -10 10 -22 0 -13 7 -32 15 -42 8 -11 15 -28 15 -37 0 -9 10 -37 21 -61 12
-23 25 -52 29 -63 15 -41 75 -160 82 -163 5 -2 8 -12 8 -23 0 -10 5 -19 10
-19 6 0 10 -9 10 -19 0 -11 4 -21 9 -23 11 -4 81 -114 81 -128 0 -5 5 -10 10
-10 6 0 10 -7 10 -15 0 -8 5 -15 10 -15 6 0 10 -7 10 -15 0 -8 5 -15 10 -15 6
0 10 -7 10 -15 0 -8 5 -15 10 -15 6 0 10 -4 10 -9 0 -5 15 -24 33 -43 17 -19
46 -51 62 -72 17 -21 46 -55 65 -75 19 -21 51 -55 71 -77 32 -35 122 -117 189
-174 14 -12 36 -31 50 -43 13 -12 56 -45 95 -74 38 -29 75 -56 80 -60 6 -4 37
-26 70 -48 33 -22 62 -42 65 -45 3 -4 36 -23 73 -43 37 -21 73 -42 80 -48 20
-17 279 -149 362 -185 17 -7 46 -19 65 -27 160 -68 530 -163 790 -203 348 -53
445 -65 805 -99 301 -28 511 -36 1095 -42 571 -5 1011 5 1215 27 408 46 787
185 883 325 20 29 50 161 39 172 -3 3 -8 -12 -12 -33 -15 -94 -84 -174 -196
-228 -42 -20 -82 -36 -88 -36 -7 0 -19 -7 -27 -15 -9 -8 -24 -15 -35 -15 -10
0 -19 -4 -19 -9 0 -5 -25 -13 -55 -16 -30 -4 -58 -11 -60 -16 -3 -4 -27 -11
-53 -14 -26 -3 -63 -10 -82 -16 -116 -33 -486 -47 -1280 -47 -843 0 -1569 22
-1625 48 -11 5 -74 14 -140 19 -146 13 -306 34 -320 42 -5 4 -48 10 -95 14
-47 4 -89 10 -95 15 -5 4 -30 10 -55 14 -24 4 -49 11 -55 15 -5 5 -32 14 -60
20 -97 23 -122 30 -284 85 -159 53 -294 106 -288 112 1 2 54 -14 117 -36 133
-44 306 -85 465 -108 155 -22 577 -22 736 0 1053 151 1926 907 2213 1918 124
439 138 863 42 1325 -9 44 -21 91 -25 105 -5 14 -14 45 -21 70 -45 161 -166
458 -192 468 -4 2 -8 10 -8 18 0 13 -18 52 -30 64 -10 10 -41 65 -47 83 -3 9
-9 17 -14 17 -5 0 -9 4 -9 9 0 15 -120 187 -157 226 -7 8 -13 16 -13 20 0 6
-41 53 -97 113 -18 18 -33 35 -33 37 0 11 -185 184 -229 215 -11 8 -21 20 -21
27 0 7 -4 13 -8 13 -8 0 -33 18 -80 58 -40 34 -210 146 -262 173 -25 13 -47
26 -50 29 -10 13 -141 80 -155 80 -8 0 -15 4 -15 10 0 5 -12 13 -27 16 -16 4
-35 12 -43 19 -8 7 -31 16 -50 20 -19 4 -41 11 -50 15 -60 29 -89 40 -120 46
-19 3 -39 10 -45 14 -5 4 -28 11 -50 15 -22 4 -44 10 -50 15 -13 10 -92 29
-180 42 -38 6 -72 14 -75 18 -5 8 -130 23 -325 39 -122 11 -375 11 -470 0z
m490 -770 c806 -69 1482 -636 1686 -1414 50 -191 62 -309 56 -548 -4 -176 -9
-231 -30 -327 -111 -508 -392 -924 -813 -1206 -230 -154 -479 -251 -769 -300
-137 -23 -442 -23 -585 0 -405 65 -746 236 -1039 520 -375 365 -582 853 -581
1373 1 698 375 1329 995 1677 313 176 705 258 1080 225z"/>
<path d="M6092 4769 c-178 -26 -405 -104 -578 -200 -193 -107 -427 -313 -549
-483 -60 -84 -145 -227 -145 -243 0 -28 21 -10 46 39 34 67 65 116 136 210
218 290 535 507 888 607 173 48 236 56 470 55 237 0 326 -13 512 -75 387 -128
735 -413 935 -763 26 -47 54 -86 61 -86 14 0 -7 45 -70 148 -256 419 -709 717
-1205 791 -84 13 -410 12 -501 0z"/>
<path d="M6218 3521 c-111 -36 -225 -120 -298 -220 -66 -91 -83 -146 -54 -175
43 -43 130 3 284 151 66 63 120 111 120 105 0 -5 -8 -16 -17 -23 -27 -23 -107
-151 -167 -269 -55 -105 -79 -131 -92 -95 -8 19 -24 20 -24 1 0 -7 10 -20 22
-28 l22 -15 -44 -78 c-56 -96 -147 -198 -192 -212 l-33 -11 34 -1 c64 -2 133
67 217 216 32 56 53 85 68 87 185 35 262 70 351 160 138 137 165 295 66 379
-59 50 -161 60 -263 28z m205 -19 c53 -30 72 -66 72 -135 0 -171 -193 -361
-399 -392 l-48 -8 56 109 c75 148 143 249 209 312 51 47 54 52 31 52 -43 0
-83 -28 -208 -149 -123 -118 -170 -154 -218 -166 -21 -5 -29 -2 -38 14 -39 74
122 268 286 346 100 47 195 54 257 17z"/>
<path d="M6801 3481 c-8 -5 -22 -29 -32 -53 -9 -23 -49 -119 -87 -213 l-69
-169 -64 -12 c-66 -12 -139 -42 -139 -56 0 -4 19 2 42 14 37 19 148 38 148 25
0 -3 -22 -66 -50 -141 -27 -75 -50 -138 -50 -141 0 -3 6 -5 13 -5 8 0 35 57
66 140 29 77 55 140 58 140 3 0 36 -10 75 -21 74 -23 144 -22 203 1 39 16 15
25 -27 11 -46 -16 -138 -13 -197 6 -61 19 -64 -5 31 228 39 93 75 184 81 202
16 49 65 53 191 14 107 -34 181 -39 212 -17 29 22 12 28 -30 11 -43 -18 -79
-14 -184 21 -73 24 -165 31 -191 15z"/>
<path d="M4760 2445 c0 -16 85 -183 128 -253 243 -390 597 -652 1042 -769 132
-35 140 -36 367 -41 189 -3 251 -1 334 13 555 93 1040 465 1273 978 53 116 20
96 -37 -23 -239 -496 -709 -846 -1257 -936 -154 -25 -400 -23 -552 5 -538 98
-997 445 -1223 924 -27 58 -56 106 -62 107 -7 0 -13 -2 -13 -5z"/>
</g>
</svg>
